<?xml version="1.0" encoding="UTF-8" standalone="no"?>
<svg
   xmlns:dc="http://purl.org/dc/elements/1.1/"
   xmlns:cc="http://creativecommons.org/ns#"
   xmlns:rdf="http://www.w3.org/1999/02/22-rdf-syntax-ns#"
   xmlns:svg="http://www.w3.org/2000/svg"
   xmlns="http://www.w3.org/2000/svg"
   xmlns:sodipodi="http://sodipodi.sourceforge.net/DTD/sodipodi-0.dtd"
   xmlns:inkscape="http://www.inkscape.org/namespaces/inkscape"
   width="48"
   height="48"
   viewBox="0 0 12.7 12.7"
   version="1.1"
   id="svg14"
   sodipodi:docname="gedibian.svg"
   inkscape:version="0.92.4 (5da689c313, 2019-01-14)"
   inkscape:export-filename="/home/billerot/Téléchargements/Simply_Circles_Icons-master/Simply-Red-Circles/scalable/categories/applications-utilities.svg.png"
   inkscape:export-xdpi="96"
   inkscape:export-ydpi="96">
  <metadata
     id="metadata20">
    <rdf:RDF>
      <cc:Work
         rdf:about="">
        <dc:format>image/svg+xml</dc:format>
        <dc:type
           rdf:resource="http://purl.org/dc/dcmitype/StillImage" />
        <dc:title></dc:title>
      </cc:Work>
    </rdf:RDF>
  </metadata>
  <defs
     id="defs18" />
  <sodipodi:namedview
     pagecolor="#ffffff"
     bordercolor="#666666"
     borderopacity="1"
     objecttolerance="10"
     gridtolerance="10"
     guidetolerance="10"
     inkscape:pageopacity="0"
     inkscape:pageshadow="2"
     inkscape:window-width="1596"
     inkscape:window-height="922"
     id="namedview16"
     showgrid="false"
     inkscape:zoom="15.1875"
     inkscape:cx="7.7366255"
     inkscape:cy="24"
     inkscape:window-x="0"
     inkscape:window-y="32"
     inkscape:window-maximized="0"
     inkscape:current-layer="svg14" />
  <g
     id="g12"
     style="fill:#a02c2c">
    <path
       d="m 6.345,0.073 a 6.29,6.29 0 0 0 -6.29,6.29 6.29,6.29 0 0 0 6.29,6.289 6.29,6.29 0 0 0 6.289,-6.29 6.29,6.29 0 0 0 -6.29,-6.29 z M 6.326,1.009 A 5.407,5.407 0 0 1 11.734,6.417 5.407,5.407 0 0 1 6.326,11.823 5.407,5.407 0 0 1 0.92,6.417 5.407,5.407 0 0 1 6.327,1.009 Z"
       id="path2"
       inkscape:connector-curvature="0" />
    <g
       transform="matrix(1.4142136,1.4142136,-1.4142136,1.4142136,417.24238,-413.85221)"
       id="g10">
      <path
         d="m 1.944,292.838 a 0.422,0.422 0 0 0 -0.058,10e-4 l 0.773,0.787 0.923,0.183 c 1.658,0.33 1.88,-0.056 1.88,-0.056 0,0 -0.08,-0.237 -0.935,-0.407 l -2.524,-0.5 a 0.398,0.398 0 0 0 -0.06,-0.007 z m 2.433,0.641 0.626,0.124 c -0.034,0.128 -0.477,0.044 -0.626,-0.124 z"
         id="path4"
         inkscape:connector-curvature="0"
         style="opacity:0.8" />
      <path
         d="m 3.413,291.348 c -0.145,-0.015 -0.47,0.198 -0.626,0.354 l -0.97,0.97 a 0.45,0.45 0 0 0 -0.054,0.064 l 0.632,0.631 a 0.46,0.46 0 0 0 0.063,-0.053 l 0.44,-0.44 c 0.209,-0.209 0.354,-0.39 0.453,-0.552 L 3.26,292.23 3.03,292.46 a 0.133,0.133 0 0 1 -0.189,0 l -0.033,-0.032 a 0.133,0.133 0 0 1 0,-0.188 l 0.353,-0.353 a 0.113,0.113 0 0 1 0.16,0 l 0.162,0.163 c 0.085,-0.25 0.075,-0.586 -0.02,-0.681 a 0.08,0.08 0 0 0 -0.05,-0.021 z m -0.294,0.234 c 0.088,0.1 -0.214,0.416 -0.437,0.447 z m -0.517,3.783 -0.238,-0.07 c -0.691,-0.206 -0.828,-0.024 -0.828,-0.024 0,0 0.123,0.369 0.926,0.608 l 0.82,0.243 a 0.352,0.352 0 0 0 0.078,0.015"
         id="path6"
         inkscape:connector-curvature="0" />
      <rect
         width="0.93699998"
         height="4.4000001"
         x="-206.828"
         y="207.95"
         rx="0.44800001"
         ry="0.44800001"
         transform="rotate(-45)"
         id="rect8" />
    </g>
  </g>
  <path
     style="fill:#ffffff;stroke-width:0.06584362"
     d="m 22.663374,44.623416 c -0.144855,-0.0142 -0.5893,-0.05784 -0.987654,-0.09697 C 19.244281,44.28761 16.363083,43.387795 14.181126,42.185842 8.1953416,38.888515 4.2832689,32.988716 3.6043481,26.234999 3.5151218,25.3474 3.516501,23.151579 3.6068593,22.23695 3.9638344,18.62356 5.3756525,14.964897 7.511693,12.117748 10.962277,7.5184331 15.939682,4.6520805 21.67572,3.9610686 c 0.936577,-0.1128281 3.538897,-0.1129792 4.477366,-2.601e-4 2.458673,0.2953099 4.669406,0.9563828 6.879206,2.0570809 6.201962,3.0891882 10.354523,9.0414616 11.157842,15.9936336 0.133768,1.157667 0.134152,3.314246 7.97e-4,4.477366 -0.549183,4.78998 -2.69147,9.136265 -6.141093,12.459081 -3.161664,3.045443 -7.192376,4.968992 -11.633377,5.551717 -0.750557,0.09848 -3.190252,0.178914 -3.753087,0.123729 z m -4.699786,-3.677793 c 1.25113,-0.265195 2.261681,-1.245524 2.592272,-2.514746 0.08695,-0.333845 0.09916,-2.078078 0.09831,-14.046357 C 20.653321,12.42903 20.640757,10.666562 20.553759,10.297486 20.272953,9.1061985 19.272402,8.1056481 18.081115,7.8248417 17.530621,7.695081 16.59783,7.6964498 16.088516,7.8277658 c -1.182129,0.3047877 -2.136862,1.2555131 -2.443664,2.4334062 -0.08898,0.341628 -0.100728,1.999152 -0.100038,14.118094 8.5e-4,14.948677 -0.02274,14.00237 0.369121,14.808819 0.243101,0.500307 0.934257,1.184862 1.468647,1.454622 0.750258,0.378729 1.698371,0.490003 2.581006,0.302916 z m -5.811425,-10.268169 0.0092,-2.231188 -0.637037,-1.159759 C 10.385882,25.213992 9.6667808,24.17095 8.7662565,23.286048 8.1905539,22.720332 7.450189,22.274897 7.0856064,22.274897 c -0.1581952,0 -0.1958583,0.03645 -0.255159,0.246914 -0.4589088,1.628742 -0.059053,4.018385 1.0993731,6.570135 0.3699281,0.814867 3.7049985,7.025403 3.9942725,7.438095 l 0.138458,0.197531 0.04023,-1.909465 c 0.02213,-1.050206 0.04435,-2.913499 0.04938,-4.140653 z m 23.962421,3.927426 c 0.03266,-0.927005 -0.30496,-2.033652 -1.115181,-3.655312 -0.649945,-1.30087 -1.122105,-2.03945 -5.238535,-8.194426 l -3.976175,-5.945265 0.678024,-0.0012 c 1.895115,-0.0033 4.055524,-0.177976 5.399329,-0.436532 l 0.579106,-0.111422 V 15.745184 15.22963 h -1.318987 c -1.483639,0 -1.644995,-0.035 -1.939147,-0.420656 -0.264219,-0.346409 -0.303262,-0.948761 -0.08752,-1.350186 0.284157,-0.528714 0.310239,-0.533823 2.719109,-0.532715 2.305759,0.0011 2.324314,0.0039 2.583412,0.388327 0.139533,0.207052 0.150125,0.291769 0.150125,1.200687 0,0.537855 0.02359,0.977917 0.05241,0.977917 0.02883,0 0.265867,-0.131604 0.526758,-0.292454 1.275811,-0.78659 2.3555,-1.858865 2.788422,-2.769274 0.240649,-0.506071 0.24875,-0.872391 0.02517,-1.138105 C 37.62882,10.92228 36.53994,10.45936 35.351498,10.192325 34.07359,9.9051883 33.862661,9.8970902 27.651029,9.8966844 l -5.942387,-3.881e-4 v 4.7981127 4.798114 l 2.421967,3.613409 c 3.427938,5.114251 4.353702,6.360139 6.29847,8.476447 1.95728,2.129924 4.193233,3.62946 5.337176,3.579364 l 0.329218,-0.01442 z"
     id="path3715"
     inkscape:connector-curvature="0"
     transform="scale(0.26458333)" />
  <path
     style="fill:#ffffff;stroke-width:0.06584362"
     d="m 33.85679,31.830984 c -0.558416,-0.2545 -1.36511,-1.320768 -1.775695,-2.347069 -0.176644,-0.44154 -0.388312,-1.309588 -0.348477,-1.429095 0.01158,-0.03473 0.603421,0.810544 1.315208,1.878391 0.711787,1.067847 1.276348,1.95935 1.254579,1.981119 -0.06352,0.06351 -0.165042,0.04453 -0.445615,-0.08335 z"
     id="path3717"
     inkscape:connector-curvature="0"
     transform="scale(0.26458333)" />
  <path
     style="fill:#ffffff;stroke-width:0.06584362"
     d="m 32.406389,11.741434 c -0.61168,-0.08658 -1.206284,-0.256911 -1.573704,-0.450811 l -0.33392,-0.17622 2.265242,-0.01734 c 1.245883,-0.0095 2.2829,3.21e-4 2.304482,0.0219 0.08038,0.08038 -0.395055,0.420217 -0.724945,0.518184 -0.424198,0.125973 -1.409255,0.179001 -1.937155,0.104281 z"
     id="path3719"
     inkscape:connector-curvature="0"
     transform="scale(0.26458333)" />
</svg>
